<svg width="1200" height="320" viewBox="0 0 1200 320" fill="none" xmlns="http://www.w3.org/2000/svg">
  <defs>
    <linearGradient id="bg-t" x1="0" y1="0" x2="1200" y2="320" gradientUnits="userSpaceOnUse">
      <stop offset="0" stop-color="#FAFBFC"/>
      <stop offset="0.55" stop-color="#F1F5F9"/>
      <stop offset="1" stop-color="#E6EDF5"/>
    </linearGradient>
    <linearGradient id="line-t" x1="120" y1="230" x2="1080" y2="170" gradientUnits="userSpaceOnUse">
      <stop stop-color="#CBD5E1" stop-opacity="0"/>
      <stop offset="0.3" stop-color="#38BDF8" stop-opacity="0.35"/>
      <stop offset="0.72" stop-color="#0EA5E9" stop-opacity="0.55"/>
      <stop offset="1" stop-color="#CBD5E1" stop-opacity="0"/>
    </linearGradient>
    <radialGradient id="glow-t" cx="0.5" cy="0.5" r="0.5">
      <stop offset="0" stop-color="#38BDF8" stop-opacity="0.42"/>
      <stop offset="0.55" stop-color="#60A5FA" stop-opacity="0.18"/>
      <stop offset="1" stop-color="#38BDF8" stop-opacity="0"/>
    </radialGradient>
    <clipPath id="card-t">
      <rect x="20" y="20" width="1160" height="280" rx="28"/>
    </clipPath>
  </defs>

  <rect x="20" y="20" width="1160" height="280" rx="28" fill="url(#bg-t)"/>
  <rect x="20.5" y="20.5" width="1159" height="279" rx="27.5" stroke="#E2E8F0" stroke-width="1"/>

  <g clip-path="url(#card-t)">
    <g opacity="0.14" stroke="#CBD5E1" stroke-width="0.6">
      <path d="M60 90 L1140 90"/>
      <path d="M60 146 L1140 146"/>
      <path d="M60 202 L1140 202"/>
      <path d="M60 258 L1140 258"/>
      <path d="M200 40 L200 290"/>
      <path d="M360 40 L360 290"/>
      <path d="M520 40 L520 290"/>
      <path d="M680 40 L680 290"/>
      <path d="M840 40 L840 290"/>
      <path d="M1000 40 L1000 290"/>
    </g>

    <circle cx="1000" cy="150" r="140" fill="url(#glow-t)"/>

    <path d="M120 224 C240 216 340 208 440 200 S640 188 760 196 S920 204 1080 188" stroke="url(#line-t)" stroke-width="2" stroke-linecap="round" fill="none"/>
    <path d="M120 236 C244 228 342 220 444 212 S644 202 764 210 S922 216 1080 202" stroke="#0F172A" stroke-opacity="0.08" stroke-width="1.2" stroke-linecap="round" stroke-dasharray="4 7" fill="none"/>
  </g>

  <rect x="88" y="58" width="144" height="28" rx="14" fill="#FFFFFF" fill-opacity="0.92" stroke="#E2E8F0" stroke-width="0.6"/>
  <text x="160" y="76" text-anchor="middle" fill="#64748B" font-family="ui-monospace, SFMono-Regular, Menlo, Monaco, Consolas, monospace" font-size="11" letter-spacing="0.16em" font-weight="600">PROFILE README</text>

  <text x="88" y="134" fill="#0F172A" font-family="-apple-system, BlinkMacSystemFont, 'Segoe UI', sans-serif" font-size="46" font-weight="700" letter-spacing="-0.01em">MrGeDiao</text>
  <text x="88" y="170" fill="#334155" font-family="-apple-system, BlinkMacSystemFont, 'Segoe UI', sans-serif" font-size="20" font-weight="600">产品经理出身的全栈极客</text>
  <text x="88" y="200" fill="#64748B" font-family="-apple-system, BlinkMacSystemFont, 'Segoe UI', sans-serif" font-size="15" font-weight="500">Think like PM, build like Engineer.</text>

  <rect x="88" y="232" width="198" height="30" rx="15" fill="#0F172A"/>
  <text x="187" y="252" text-anchor="middle" fill="#F8FAFC" font-family="-apple-system, BlinkMacSystemFont, 'Segoe UI', sans-serif" font-size="11" font-weight="600" letter-spacing="0.08em">PRODUCT × ENGINEERING</text>

  <rect x="298" y="232" width="178" height="30" rx="15" fill="#E0F2FE"/>
  <text x="387" y="252" text-anchor="middle" fill="#0C4A6E" font-family="-apple-system, BlinkMacSystemFont, 'Segoe UI', sans-serif" font-size="11" font-weight="600" letter-spacing="0.08em">AI · AGENT · MEMORY</text>

  <rect x="488" y="232" width="178" height="30" rx="15" fill="#ECFDF5"/>
  <text x="577" y="252" text-anchor="middle" fill="#166534" font-family="-apple-system, BlinkMacSystemFont, 'Segoe UI', sans-serif" font-size="11" font-weight="600" letter-spacing="0.08em">INSIGHT → SHIPPING</text>
</svg>
