<svg xmlns="http://www.w3.org/2000/svg" width="1200" height="430" viewBox="0 0 1200 430" role="img" aria-label="MrGeDiao · 把模糊的问题做成能验证的工具">
  <rect x="1" y="1" width="1198" height="428" fill="#F7F8F5" stroke="#D7DCE2" stroke-width="1.5"/>
  <rect x="40" y="25" width="10" height="10" fill="#246BFD"/>
  <g font-family="ui-monospace, 'SF Mono', 'JetBrains Mono', 'Cascadia Code', monospace" font-size="12" letter-spacing="0.8">
    <text x="62" y="35" fill="#101318" font-weight="700">SIGNAL INDEX</text>
    <text x="166" y="35" fill="#929AA5">/ PERSONAL EDITION</text>
    <text x="1160" y="35" fill="#66707C" text-anchor="end">PRODUCT · AGENTS · CHINESE</text>
  </g>
  <line x1="40" y1="54" x2="1160" y2="54" stroke="#D7DCE2"/>

  <line x1="822" y1="54" x2="822" y2="402" stroke="#AEB5BF"/>

  <text x="42" y="145" font-family="-apple-system, BlinkMacSystemFont, 'SF Pro Display', 'PingFang SC', 'Segoe UI', sans-serif" font-size="78" font-weight="760" letter-spacing="-2.5" fill="#101318">MrGeDiao</text>
  <text x="42" y="198" font-family="-apple-system, BlinkMacSystemFont, 'SF Pro Display', 'PingFang SC', 'Segoe UI', sans-serif" font-size="31" font-weight="720" letter-spacing="0.2" fill="#101318">把模糊的问题做成能验证的工具</text>
  <text x="42" y="232" font-family="-apple-system, BlinkMacSystemFont, 'SF Pro Text', 'PingFang SC', 'Segoe UI', sans-serif" font-size="16" fill="#66707C">产品经理出身，自己写、自己用、自己维护。</text>
  <line x1="42" y1="260" x2="790" y2="260" stroke="#AEB5BF"/>

  <!-- Tabler Icons, MIT -->
  <g fill="none" stroke="#101318" stroke-width="1.8" stroke-linecap="round" stroke-linejoin="round">
    <g transform="translate(42,287) scale(1.15)">
      <path d="M8 7a4 4 0 1 0 8 0a4 4 0 0 0 -8 0"/><path d="M6 21v-2a4 4 0 0 1 4 -4h4a4 4 0 0 1 4 4v2"/>
    </g>
    <g transform="translate(300,287) scale(1.15)">
      <path d="M7 8l-4 4l4 4"/><path d="M17 8l4 4l-4 4"/><path d="M14 4l-4 16"/>
    </g>
    <g transform="translate(558,287) scale(1.15)">
      <path d="M3 12a9 9 0 1 0 18 0a9 9 0 0 0 -18 0"/><path d="M3.6 9h16.8"/><path d="M3.6 15h16.8"/><path d="M11.5 3a17 17 0 0 0 0 18"/><path d="M12.5 3a17 17 0 0 1 0 18"/>
    </g>
  </g>
  <g font-family="ui-monospace, 'SF Mono', 'JetBrains Mono', monospace" font-size="11" letter-spacing="0.5" fill="#246BFD">
    <text x="82" y="302">BACKGROUND</text><text x="340" y="302">APPROACH</text><text x="598" y="302">LANGUAGE</text>
  </g>
  <g font-family="-apple-system, BlinkMacSystemFont, 'SF Pro Text', 'PingFang SC', 'Segoe UI', sans-serif" font-size="14.5" fill="#101318">
    <text x="82" y="330">产品判断，自己把项目做完</text>
    <text x="82" y="353" fill="#66707C">从需求到上线和维护</text>
    <text x="340" y="330">能验证，能复查</text>
    <text x="340" y="353" fill="#66707C">持续使用，再决定下一步</text>
    <text x="598" y="330">中文优先</text>
    <text x="598" y="353" fill="#66707C">工具服务真实中文语境</text>
  </g>

  <text x="856" y="86" font-family="ui-monospace, 'SF Mono', 'JetBrains Mono', monospace" font-size="11" letter-spacing="1" fill="#246BFD">INDEX / CONTENTS</text>
  <g font-family="ui-monospace, 'SF Mono', 'JetBrains Mono', monospace" font-size="13" fill="#246BFD">
    <text x="856" y="122">01</text><text x="856" y="162">02</text><text x="856" y="202">03</text><text x="856" y="242">04</text>
  </g>
  <g font-family="-apple-system, BlinkMacSystemFont, 'SF Pro Text', 'PingFang SC', 'Segoe UI', sans-serif" font-size="15" fill="#101318">
    <text x="892" y="122">公开作品</text>
    <text x="892" y="162">工具箱与工作流</text>
    <text x="892" y="202">私有研究项目</text>
    <text x="892" y="242">最近提交</text>
  </g>
  <g font-family="ui-monospace, 'SF Mono', 'JetBrains Mono', monospace" font-size="10" letter-spacing="0.5" fill="#929AA5" text-anchor="end">
    <text x="1160" y="122">PUBLIC WORK</text>
    <text x="1160" y="162">TOOLS</text>
    <text x="1160" y="202">PRIVATE LAB</text>
    <text x="1160" y="242">ACTIVITY</text>
  </g>
  <g stroke="#D7DCE2">
    <line x1="856" y1="134" x2="1160" y2="134"/>
    <line x1="856" y1="174" x2="1160" y2="174"/>
    <line x1="856" y1="214" x2="1160" y2="214"/>
    <line x1="856" y1="254" x2="1160" y2="254"/>
  </g>

  <rect x="856" y="282" width="304" height="88" fill="#FFFFFF" stroke="#AEB5BF"/>
  <rect x="856" y="282" width="304" height="4" fill="#246BFD"/>
  <text x="1008" y="322" text-anchor="middle" font-family="ui-monospace, 'SF Mono', 'JetBrains Mono', monospace" font-size="14" font-weight="700" letter-spacing="1" fill="#246BFD">BUILD · VERIFY · MAINTAIN</text>
  <text x="1008" y="348" text-anchor="middle" font-family="ui-monospace, 'SF Mono', 'JetBrains Mono', monospace" font-size="10.5" letter-spacing="0.6" fill="#929AA5">WORKING PRINCIPLE</text>
</svg>
