<svg width="1200" height="320" viewBox="0 0 1200 320" fill="none" xmlns="http://www.w3.org/2000/svg">
  <defs>
    <linearGradient id="bg-b" x1="1084" y1="24" x2="160" y2="312" gradientUnits="userSpaceOnUse">
      <stop stop-color="#F8FAFC"/>
      <stop offset="1" stop-color="#E2E8F0"/>
    </linearGradient>
    <linearGradient id="accent-b" x1="910" y1="80" x2="238" y2="246" gradientUnits="userSpaceOnUse">
      <stop stop-color="#0F172A"/>
      <stop offset="0.55" stop-color="#334155"/>
      <stop offset="1" stop-color="#06B6D4"/>
    </linearGradient>
    <linearGradient id="line-b" x1="132" y1="180" x2="1038" y2="120" gradientUnits="userSpaceOnUse">
      <stop stop-color="#94A3B8" stop-opacity="0.15"/>
      <stop offset="0.5" stop-color="#06B6D4" stop-opacity="0.45"/>
      <stop offset="1" stop-color="#0EA5E9" stop-opacity="0.55"/>
    </linearGradient>
    <filter id="blur-b" x="130" y="62" width="242" height="202" filterUnits="userSpaceOnUse" color-interpolation-filters="sRGB">
      <feFlood flood-opacity="0" result="BackgroundImageFix"/>
      <feBlend mode="normal" in="SourceGraphic" in2="BackgroundImageFix" result="shape"/>
      <feGaussianBlur stdDeviation="22" result="effect1_foregroundBlur_1_1"/>
    </filter>
  </defs>

  <rect x="12" y="12" width="1176" height="296" rx="28" fill="url(#bg-b)"/>
  <rect x="12.5" y="12.5" width="1175" height="295" rx="27.5" stroke="#CBD5E1"/>

  <g opacity="0.18">
    <path d="M68 69H1132" stroke="#CBD5E1"/>
    <path d="M68 123H1132" stroke="#CBD5E1"/>
    <path d="M68 177H1132" stroke="#CBD5E1"/>
    <path d="M68 231H1132" stroke="#CBD5E1"/>
    <path d="M68 285H1132" stroke="#CBD5E1"/>
    <path d="M120 36V284" stroke="#CBD5E1"/>
    <path d="M272 36V284" stroke="#CBD5E1"/>
    <path d="M424 36V284" stroke="#CBD5E1"/>
    <path d="M576 36V284" stroke="#CBD5E1"/>
    <path d="M728 36V284" stroke="#CBD5E1"/>
    <path d="M880 36V284" stroke="#CBD5E1"/>
    <path d="M1032 36V284" stroke="#CBD5E1"/>
  </g>

  <path d="M132 214C252 206 334 198 440 182C548 166 622 150 722 140C832 129 914 132 1038 120" stroke="url(#line-b)" stroke-width="2.5" stroke-linecap="round"/>
  <path d="M132 226C242 218 336 210 442 194C552 178 624 160 728 152C838 144 918 144 1038 132" stroke="#0F172A" stroke-opacity="0.12" stroke-width="1.5" stroke-linecap="round" stroke-dasharray="5 8"/>

  <g filter="url(#blur-b)" opacity="0.7">
    <circle cx="251" cy="163" r="57" fill="#38BDF8"/>
    <circle cx="207" cy="160" r="43" fill="#A5F3FC"/>
  </g>

  <rect x="978" y="52" width="150" height="28" rx="14" fill="#FFFFFF" fill-opacity="0.78"/>
  <text x="1000" y="71" fill="#334155" font-family="ui-monospace, SFMono-Regular, Menlo, Monaco, Consolas, Liberation Mono, monospace" font-size="12" letter-spacing="0.12em">END OF README</text>

  <text x="1128" y="122" text-anchor="end" fill="#0F172A" font-family="-apple-system, BlinkMacSystemFont, 'Segoe UI', sans-serif" font-size="44" font-weight="700">Still building.</text>
  <text x="1128" y="164" text-anchor="end" fill="#334155" font-family="-apple-system, BlinkMacSystemFont, 'Segoe UI', sans-serif" font-size="22" font-weight="600">把东西做出来，跑稳，跑久。</text>
  <text x="1128" y="200" text-anchor="end" fill="#475569" font-family="-apple-system, BlinkMacSystemFont, 'Segoe UI', sans-serif" font-size="18">Ship. Iterate. Let it run.</text>

  <rect x="892" y="232" width="236" height="26" rx="13" fill="#0F172A"/>
  <text x="1010" y="249" text-anchor="middle" fill="#F8FAFC" font-family="-apple-system, BlinkMacSystemFont, 'Segoe UI', sans-serif" font-size="12" font-weight="600">THINKING IN PUBLIC · SHIPPING IN PUBLIC</text>

  <rect x="734" y="232" width="146" height="26" rx="13" fill="#ECFDF5"/>
  <text x="807" y="249" text-anchor="middle" fill="#166534" font-family="-apple-system, BlinkMacSystemFont, 'Segoe UI', sans-serif" font-size="12" font-weight="600">LONG GAME · LOW NOISE</text>

  <rect x="576" y="232" width="146" height="26" rx="13" fill="#E0F2FE"/>
  <text x="649" y="249" text-anchor="middle" fill="#0C4A6E" font-family="-apple-system, BlinkMacSystemFont, 'Segoe UI', sans-serif" font-size="12" font-weight="600">KEEP IT USEFUL</text>
</svg>
