<svg width="1200" height="320" viewBox="0 0 1200 320" fill="none" xmlns="http://www.w3.org/2000/svg">
  <defs>
    <linearGradient id="bg" x1="160" y1="24" x2="1084" y2="312" gradientUnits="userSpaceOnUse">
      <stop stop-color="#F8FAFC"/>
      <stop offset="1" stop-color="#E2E8F0"/>
    </linearGradient>
    <linearGradient id="accent" x1="238" y1="80" x2="910" y2="246" gradientUnits="userSpaceOnUse">
      <stop stop-color="#0F172A"/>
      <stop offset="0.55" stop-color="#334155"/>
      <stop offset="1" stop-color="#0EA5E9"/>
    </linearGradient>
    <linearGradient id="line" x1="132" y1="214" x2="1038" y2="214" gradientUnits="userSpaceOnUse">
      <stop stop-color="#94A3B8" stop-opacity="0.15"/>
      <stop offset="0.5" stop-color="#0EA5E9" stop-opacity="0.45"/>
      <stop offset="1" stop-color="#94A3B8" stop-opacity="0.15"/>
    </linearGradient>
    <filter id="blur" x="828" y="62" width="242" height="202" filterUnits="userSpaceOnUse" color-interpolation-filters="sRGB">
      <feFlood flood-opacity="0" result="BackgroundImageFix"/>
      <feBlend mode="normal" in="SourceGraphic" in2="BackgroundImageFix" result="shape"/>
      <feGaussianBlur stdDeviation="22" result="effect1_foregroundBlur_1_1"/>
    </filter>
  </defs>

  <rect x="12" y="12" width="1176" height="296" rx="28" fill="url(#bg)"/>
  <rect x="12.5" y="12.5" width="1175" height="295" rx="27.5" stroke="#CBD5E1"/>

  <g opacity="0.22">
    <path d="M68 69H1132" stroke="#CBD5E1"/>
    <path d="M68 123H1132" stroke="#CBD5E1"/>
    <path d="M68 177H1132" stroke="#CBD5E1"/>
    <path d="M68 231H1132" stroke="#CBD5E1"/>
    <path d="M68 285H1132" stroke="#CBD5E1"/>
    <path d="M120 36V284" stroke="#CBD5E1"/>
    <path d="M272 36V284" stroke="#CBD5E1"/>
    <path d="M424 36V284" stroke="#CBD5E1"/>
    <path d="M576 36V284" stroke="#CBD5E1"/>
    <path d="M728 36V284" stroke="#CBD5E1"/>
    <path d="M880 36V284" stroke="#CBD5E1"/>
    <path d="M1032 36V284" stroke="#CBD5E1"/>
  </g>

  <path d="M132 214C250 187 324 185 431 196C535 206 602 237 698 233C806 229 890 177 1038 198" stroke="url(#line)" stroke-width="2.5" stroke-linecap="round"/>
  <path d="M132 226C238 201 326 202 430 211C541 220 604 247 706 244C819 241 898 191 1038 210" stroke="#0F172A" stroke-opacity="0.12" stroke-width="1.5" stroke-linecap="round" stroke-dasharray="5 8"/>

  <g filter="url(#blur)" opacity="0.75">
    <circle cx="949" cy="163" r="57" fill="#38BDF8"/>
    <circle cx="993" cy="160" r="43" fill="#A5F3FC"/>
  </g>

  <rect x="72" y="52" width="150" height="28" rx="14" fill="#FFFFFF" fill-opacity="0.78"/>
  <text x="93" y="71" fill="#334155" font-family="ui-monospace, SFMono-Regular, Menlo, Monaco, Consolas, Liberation Mono, monospace" font-size="12" letter-spacing="0.12em">PROFILE README</text>

  <text x="72" y="122" fill="#0F172A" font-family="-apple-system, BlinkMacSystemFont, 'Segoe UI', sans-serif" font-size="44" font-weight="700">MrGeDiao</text>
  <text x="72" y="164" fill="#334155" font-family="-apple-system, BlinkMacSystemFont, 'Segoe UI', sans-serif" font-size="22" font-weight="600">产品经理出身的全栈极客</text>
  <text x="72" y="200" fill="#475569" font-family="-apple-system, BlinkMacSystemFont, 'Segoe UI', sans-serif" font-size="18">Think like PM, build like Engineer.</text>

  <rect x="72" y="232" width="162" height="26" rx="13" fill="#0F172A"/>
  <text x="92" y="249" fill="#F8FAFC" font-family="-apple-system, BlinkMacSystemFont, 'Segoe UI', sans-serif" font-size="12" font-weight="600">PRODUCT x ENGINEERING</text>

  <rect x="248" y="232" width="178" height="26" rx="13" fill="#E0F2FE"/>
  <text x="268" y="249" fill="#0C4A6E" font-family="-apple-system, BlinkMacSystemFont, 'Segoe UI', sans-serif" font-size="12" font-weight="600">AI TOOLS x AGENT SYSTEMS</text>

  <rect x="440" y="232" width="148" height="26" rx="13" fill="#ECFDF5"/>
  <text x="460" y="249" fill="#166534" font-family="-apple-system, BlinkMacSystemFont, 'Segoe UI', sans-serif" font-size="12" font-weight="600">INSIGHT TO SHIPPING</text>
</svg>
