<svg xmlns="http://www.w3.org/2000/svg" width="1200" height="390" viewBox="0 0 1200 390" role="img" aria-label="说人话 star 增长曲线：开源 113 天，0 到 705 stars，数据截至 2026-07-13">
  <rect x="1" y="1" width="1198" height="388" fill="#F7F8F5" stroke="#D7DCE2" stroke-width="1.5"/>
  <rect x="1" y="1" width="1198" height="4" fill="#246BFD"/>

  <text x="40" y="37" font-family="ui-monospace, 'SF Mono', 'JetBrains Mono', monospace" font-size="11.5" letter-spacing="1" fill="#246BFD">SIGNAL GROWTH / GITHUB</text>
  <text x="40" y="73" font-family="-apple-system, 'SF Pro Text', 'PingFang SC', 'Segoe UI', 'Microsoft YaHei', sans-serif" font-size="25" font-weight="700" fill="#101318">「说人话」star 增长</text>
  <text x="40" y="98" font-family="ui-monospace, 'SF Mono', 'JetBrains Mono', monospace" font-size="12.5" fill="#929AA5">开源 113 天 · 0 → 705 · 数据截至 2026-07-13</text>
  <text x="1150" y="75" font-family="ui-monospace, 'SF Mono', 'JetBrains Mono', monospace" font-size="43" font-weight="700" fill="#246BFD" text-anchor="end">705</text>
  <text x="1150" y="98" font-family="ui-monospace, 'SF Mono', 'JetBrains Mono', monospace" font-size="11.5" letter-spacing="1" fill="#929AA5" text-anchor="end">STARGAZERS</text>
  <line x1="40" y1="112" x2="1160" y2="112" stroke="#D7DCE2" stroke-width="1"/>

  <g stroke="#E5E8EC" stroke-width="1">
    <line x1="88" y1="284.7" x2="1150" y2="284.7"/><line x1="88" y1="229.5" x2="1150" y2="229.5"/><line x1="88" y1="174.2" x2="1150" y2="174.2"/>
    <line x1="88" y1="340" x2="1150" y2="340" stroke="#AEB5BF" stroke-width="1.5"/>
  </g>
  <g font-family="ui-monospace, 'SF Mono', 'JetBrains Mono', monospace" font-size="11.5" fill="#929AA5" text-anchor="end">
    <text x="78" y="288.7">200</text><text x="78" y="233.5">400</text><text x="78" y="178.2">600</text>
  </g>
  <g font-family="ui-monospace, 'SF Mono', 'JetBrains Mono', monospace" font-size="11.5" fill="#929AA5" text-anchor="middle">
    <text x="88" y="365" text-anchor="start">3月22日</text><text x="182.0" y="365">4月</text><text x="463.9" y="365">5月</text><text x="755.3" y="365">6月</text><text x="1037.2" y="365">7月</text>
  </g>

  <path d="M88.0,340.0 L97.4,338.1 L106.8,337.5 L116.2,337.2 L125.6,329.8 L135.0,329.2 L144.4,328.9 L153.8,314.6 L163.2,310.4 L172.6,306.8 L182.0,305.2 L191.4,303.8 L200.8,303.5 L210.2,302.7 L219.6,301.9 L229.0,301.3 L238.4,300.2 L247.8,299.7 L257.2,299.4 L266.6,298.6 L276.0,298.0 L285.4,297.4 L294.8,295.0 L304.2,294.4 L313.6,293.6 L323.0,291.1 L332.4,289.4 L341.8,287.8 L351.2,284.7 L360.5,283.4 L379.3,282.0 L388.7,266.5 L398.1,261.2 L407.5,259.3 L416.9,256.6 L426.3,255.4 L435.7,254.6 L445.1,253.2 L463.9,252.7 L473.3,252.1 L482.7,251.9 L501.5,251.6 L510.9,250.8 L520.3,250.5 L529.7,249.4 L548.5,249.1 L557.9,248.8 L567.3,248.3 L576.7,247.2 L586.1,246.9 L595.5,245.5 L614.3,245.2 L623.7,244.7 L633.1,244.4 L651.9,243.8 L661.3,243.6 L670.7,242.7 L680.1,241.9 L689.5,241.4 L698.9,240.8 L708.3,240.5 L717.7,239.7 L727.1,239.1 L736.5,238.3 L745.9,237.5 L755.3,236.9 L764.7,236.7 L783.5,234.7 L792.9,234.4 L821.1,233.3 L830.5,232.2 L839.9,231.4 L858.7,231.1 L868.1,230.6 L877.5,230.0 L886.8,229.5 L896.2,228.9 L905.6,227.5 L915.0,223.9 L924.4,221.7 L933.8,214.3 L943.2,210.1 L952.6,205.2 L962.0,200.5 L971.4,198.0 L980.8,193.8 L990.2,192.2 L999.6,189.1 L1009.0,187.5 L1018.4,183.9 L1027.8,180.3 L1037.2,176.1 L1046.6,174.5 L1056.0,171.2 L1065.4,170.6 L1074.8,166.5 L1084.2,163.4 L1093.6,159.8 L1103.0,155.1 L1112.4,152.4 L1121.8,149.1 L1131.2,147.7 L1140.6,146.0 L1150.0,145.2 L1150,340 L88,340 Z" fill="#246BFD" fill-opacity="0.06"/>
  <path d="M88.0,340.0 L97.4,338.1 L106.8,337.5 L116.2,337.2 L125.6,329.8 L135.0,329.2 L144.4,328.9 L153.8,314.6 L163.2,310.4 L172.6,306.8 L182.0,305.2 L191.4,303.8 L200.8,303.5 L210.2,302.7 L219.6,301.9 L229.0,301.3 L238.4,300.2 L247.8,299.7 L257.2,299.4 L266.6,298.6 L276.0,298.0 L285.4,297.4 L294.8,295.0 L304.2,294.4 L313.6,293.6 L323.0,291.1 L332.4,289.4 L341.8,287.8 L351.2,284.7 L360.5,283.4 L379.3,282.0 L388.7,266.5 L398.1,261.2 L407.5,259.3 L416.9,256.6 L426.3,255.4 L435.7,254.6 L445.1,253.2 L463.9,252.7 L473.3,252.1 L482.7,251.9 L501.5,251.6 L510.9,250.8 L520.3,250.5 L529.7,249.4 L548.5,249.1 L557.9,248.8 L567.3,248.3 L576.7,247.2 L586.1,246.9 L595.5,245.5 L614.3,245.2 L623.7,244.7 L633.1,244.4 L651.9,243.8 L661.3,243.6 L670.7,242.7 L680.1,241.9 L689.5,241.4 L698.9,240.8 L708.3,240.5 L717.7,239.7 L727.1,239.1 L736.5,238.3 L745.9,237.5 L755.3,236.9 L764.7,236.7 L783.5,234.7 L792.9,234.4 L821.1,233.3 L830.5,232.2 L839.9,231.4 L858.7,231.1 L868.1,230.6 L877.5,230.0 L886.8,229.5 L896.2,228.9 L905.6,227.5 L915.0,223.9 L924.4,221.7 L933.8,214.3 L943.2,210.1 L952.6,205.2 L962.0,200.5 L971.4,198.0 L980.8,193.8 L990.2,192.2 L999.6,189.1 L1009.0,187.5 L1018.4,183.9 L1027.8,180.3 L1037.2,176.1 L1046.6,174.5 L1056.0,171.2 L1065.4,170.6 L1074.8,166.5 L1084.2,163.4 L1093.6,159.8 L1103.0,155.1 L1112.4,152.4 L1121.8,149.1 L1131.2,147.7 L1140.6,146.0 L1150.0,145.2" fill="none" stroke="#246BFD" stroke-width="2.4" stroke-linecap="round" stroke-linejoin="round"/>

  <line x1="915.0" y1="229.9" x2="915.0" y2="340" stroke="#AEB5BF" stroke-width="1" stroke-dasharray="2 5"/>
  <circle cx="915.0" cy="223.9" r="3.5" fill="#101318" stroke="#F7F8F5" stroke-width="2"/>
  <text x="905.0" y="208.9" font-family="-apple-system, 'SF Pro Text', 'PingFang SC', 'Segoe UI', 'Microsoft YaHei', sans-serif" font-size="12" fill="#929AA5" text-anchor="end">v1.9 · Eval Harness</text>

  <circle cx="1150.0" cy="145.2" r="4.5" fill="#246BFD" stroke="#F7F8F5" stroke-width="2"/>
  <text x="1138.0" y="135.2" font-family="-apple-system, 'SF Pro Text', 'PingFang SC', 'Segoe UI', 'Microsoft YaHei', sans-serif" font-size="14" font-weight="700" fill="#101318" text-anchor="end">最新</text>
</svg>
